<svg width="18" height="19" viewBox="0 0 18 19" fill="none" xmlns="http://www.w3.org/2000/svg">
<path d="M3.90692 10.2471L12.2844 10.2471L8.62442 13.9071C8.33192 14.1996 8.33192 14.6796 8.62442 14.9721C8.6938 15.0416 8.77622 15.0968 8.86695 15.1344C8.95768 15.172 9.05494 15.1914 9.15317 15.1914C9.25139 15.1914 9.34865 15.172 9.43938 15.1344C9.53011 15.0968 9.61253 15.0416 9.68192 14.9721L14.6244 10.0296C14.6939 9.96019 14.7491 9.87777 14.7867 9.78704C14.8244 9.69631 14.8438 9.59905 14.8438 9.50082C14.8438 9.4026 14.8244 9.30533 14.7867 9.2146C14.7491 9.12387 14.6939 9.04146 14.6244 8.97207L9.68192 4.02957C9.61248 3.96013 9.53005 3.90506 9.43932 3.86748C9.3486 3.8299 9.25136 3.81056 9.15317 3.81056C9.05497 3.81056 8.95773 3.8299 8.86701 3.86748C8.77629 3.90506 8.69385 3.96013 8.62442 4.02957C8.55498 4.09901 8.4999 4.18144 8.46232 4.27216C8.42474 4.36289 8.4054 4.46012 8.4054 4.55832C8.4054 4.65652 8.42474 4.75376 8.46232 4.84448C8.4999 4.9352 8.55498 5.01764 8.62442 5.08707L12.2844 8.74707L3.90692 8.74707C3.49442 8.74707 3.15692 9.08457 3.15692 9.49707C3.15692 9.90957 3.49442 10.2471 3.90692 10.2471Z" fill="#1D1D1B" fill-opacity="0.4"/>
</svg>
