<svg width="14" height="14" viewBox="0 0 14 14" fill="none" xmlns="http://www.w3.org/2000/svg">
<path d="M7.83009 12.6589L7.83009 3.35054L11.8968 7.41721C12.2218 7.74221 12.7551 7.74221 13.0801 7.41721C13.1573 7.34011 13.2186 7.24854 13.2604 7.14773C13.3023 7.04692 13.3238 6.93885 13.3238 6.82971C13.3238 6.72057 13.3023 6.6125 13.2604 6.51169C13.2186 6.41088 13.1573 6.3193 13.0801 6.24221L7.58842 0.750539C7.51133 0.673286 7.41975 0.611997 7.31894 0.570179C7.21813 0.528361 7.11006 0.506836 7.00092 0.506836C6.89178 0.506836 6.78371 0.528361 6.6829 0.570179C6.58209 0.611997 6.49052 0.673286 6.41342 0.750539L0.921754 6.24221C0.844602 6.31936 0.783403 6.41095 0.741649 6.51175C0.699895 6.61256 0.678405 6.7206 0.678405 6.82971C0.678405 6.93882 0.699895 7.04686 0.741649 7.14766C0.783403 7.24846 0.844602 7.34005 0.921754 7.41721C0.998905 7.49436 1.0905 7.55556 1.1913 7.59731C1.29211 7.63907 1.40015 7.66056 1.50926 7.66056C1.61836 7.66056 1.7264 7.63907 1.82721 7.59731C1.92801 7.55556 2.0196 7.49436 2.09675 7.41721L6.16342 3.35054L6.16342 12.6589C6.16342 13.1172 6.53842 13.4922 6.99675 13.4922C7.45509 13.4922 7.83009 13.1172 7.83009 12.6589Z" fill="#1D1D1B"/>
</svg>
